<mxfile host="app.diagrams.net" agent="Mozilla/5.0 (Windows NT 10.0; Win64; x64) AppleWebKit/537.36 (KHTML, like Gecko) Chrome/134.0.0.0 Safari/537.36" version="26.1.2">
  <diagram name="페이지-1" id="ARJOQIbu2-qGyVs0x3bv">
    <mxGraphModel dx="794" dy="1893" grid="1" gridSize="10" guides="1" tooltips="1" connect="1" arrows="1" fold="1" page="1" pageScale="1" pageWidth="827" pageHeight="1169" math="0" shadow="0">
      <root>
        <mxCell id="0" />
        <mxCell id="1" parent="0" />
        <mxCell id="8qxIZzSABNLE7XRfmwXq-87" style="edgeStyle=orthogonalEdgeStyle;rounded=0;orthogonalLoop=1;jettySize=auto;html=1;entryX=0.5;entryY=0;entryDx=0;entryDy=0;" edge="1" parent="1" source="8qxIZzSABNLE7XRfmwXq-86" target="8qxIZzSABNLE7XRfmwXq-89">
          <mxGeometry relative="1" as="geometry">
            <mxPoint x="360" y="170" as="targetPoint" />
          </mxGeometry>
        </mxCell>
        <mxCell id="8qxIZzSABNLE7XRfmwXq-86" value="&lt;font style=&quot;font-size: 16px;&quot;&gt;프로그램&lt;/font&gt;&lt;div&gt;&lt;font style=&quot;font-size: 16px;&quot;&gt;시작&lt;/font&gt;&lt;/div&gt;" style="strokeWidth=2;html=1;shape=mxgraph.flowchart.start_2;whiteSpace=wrap;" vertex="1" parent="1">
          <mxGeometry x="310" y="10" width="100" height="100" as="geometry" />
        </mxCell>
        <mxCell id="8qxIZzSABNLE7XRfmwXq-90" style="edgeStyle=none;shape=connector;rounded=0;orthogonalLoop=1;jettySize=auto;html=1;strokeColor=default;align=center;verticalAlign=middle;fontFamily=Helvetica;fontSize=11;fontColor=default;labelBackgroundColor=default;endArrow=classic;" edge="1" parent="1" source="8qxIZzSABNLE7XRfmwXq-89" target="8qxIZzSABNLE7XRfmwXq-92">
          <mxGeometry relative="1" as="geometry">
            <mxPoint x="360" y="240" as="targetPoint" />
          </mxGeometry>
        </mxCell>
        <mxCell id="8qxIZzSABNLE7XRfmwXq-89" value="&lt;font style=&quot;font-size: 16px;&quot;&gt;DB 접속&lt;/font&gt;" style="rounded=1;whiteSpace=wrap;html=1;absoluteArcSize=1;arcSize=14;strokeWidth=2;fontFamily=Helvetica;fontSize=11;fontColor=default;labelBackgroundColor=default;" vertex="1" parent="1">
          <mxGeometry x="290" y="140" width="140" height="50" as="geometry" />
        </mxCell>
        <mxCell id="8qxIZzSABNLE7XRfmwXq-93" style="edgeStyle=none;shape=connector;rounded=0;orthogonalLoop=1;jettySize=auto;html=1;exitX=0.5;exitY=1;exitDx=0;exitDy=0;strokeColor=default;align=center;verticalAlign=middle;fontFamily=Helvetica;fontSize=11;fontColor=default;labelBackgroundColor=default;endArrow=classic;entryX=0.5;entryY=0;entryDx=0;entryDy=0;" edge="1" parent="1" source="8qxIZzSABNLE7XRfmwXq-92" target="8qxIZzSABNLE7XRfmwXq-94">
          <mxGeometry relative="1" as="geometry">
            <mxPoint x="360" y="320" as="targetPoint" />
          </mxGeometry>
        </mxCell>
        <mxCell id="8qxIZzSABNLE7XRfmwXq-92" value="&lt;font style=&quot;font-size: 16px;&quot;&gt;카드 정보 load&lt;/font&gt;" style="rounded=1;whiteSpace=wrap;html=1;absoluteArcSize=1;arcSize=14;strokeWidth=2;fontFamily=Helvetica;fontSize=11;fontColor=default;labelBackgroundColor=default;" vertex="1" parent="1">
          <mxGeometry x="290" y="230" width="140" height="50" as="geometry" />
        </mxCell>
        <mxCell id="8qxIZzSABNLE7XRfmwXq-96" style="edgeStyle=none;shape=connector;rounded=0;orthogonalLoop=1;jettySize=auto;html=1;exitX=0.5;exitY=1;exitDx=0;exitDy=0;entryX=0.5;entryY=0;entryDx=0;entryDy=0;strokeColor=default;align=center;verticalAlign=middle;fontFamily=Helvetica;fontSize=11;fontColor=default;labelBackgroundColor=default;endArrow=classic;" edge="1" parent="1" source="8qxIZzSABNLE7XRfmwXq-94" target="8qxIZzSABNLE7XRfmwXq-95">
          <mxGeometry relative="1" as="geometry" />
        </mxCell>
        <mxCell id="8qxIZzSABNLE7XRfmwXq-94" value="&lt;font style=&quot;font-size: 16px;&quot;&gt;이용자 정보 load&lt;/font&gt;" style="rounded=1;whiteSpace=wrap;html=1;absoluteArcSize=1;arcSize=14;strokeWidth=2;fontFamily=Helvetica;fontSize=11;fontColor=default;labelBackgroundColor=default;" vertex="1" parent="1">
          <mxGeometry x="290" y="320" width="140" height="50" as="geometry" />
        </mxCell>
        <mxCell id="8qxIZzSABNLE7XRfmwXq-97" style="edgeStyle=none;shape=connector;rounded=0;orthogonalLoop=1;jettySize=auto;html=1;exitX=0.5;exitY=1;exitDx=0;exitDy=0;strokeColor=default;align=center;verticalAlign=middle;fontFamily=Helvetica;fontSize=11;fontColor=default;labelBackgroundColor=default;endArrow=classic;" edge="1" parent="1" source="8qxIZzSABNLE7XRfmwXq-95" target="8qxIZzSABNLE7XRfmwXq-98">
          <mxGeometry relative="1" as="geometry">
            <mxPoint x="360" y="510" as="targetPoint" />
          </mxGeometry>
        </mxCell>
        <mxCell id="8qxIZzSABNLE7XRfmwXq-95" value="&lt;font style=&quot;font-size: 13px;&quot;&gt;mainmenu JFrame창&lt;/font&gt;&lt;div&gt;&lt;font style=&quot;font-size: 13px;&quot;&gt;생성&lt;/font&gt;&lt;/div&gt;" style="rounded=1;whiteSpace=wrap;html=1;absoluteArcSize=1;arcSize=14;strokeWidth=2;fontFamily=Helvetica;fontSize=11;fontColor=default;labelBackgroundColor=default;" vertex="1" parent="1">
          <mxGeometry x="290" y="410" width="140" height="50" as="geometry" />
        </mxCell>
        <mxCell id="8qxIZzSABNLE7XRfmwXq-99" style="edgeStyle=none;shape=connector;rounded=0;orthogonalLoop=1;jettySize=auto;html=1;strokeColor=default;align=center;verticalAlign=middle;fontFamily=Helvetica;fontSize=11;fontColor=default;labelBackgroundColor=default;endArrow=classic;entryX=0.5;entryY=0;entryDx=0;entryDy=0;entryPerimeter=0;" edge="1" parent="1" source="8qxIZzSABNLE7XRfmwXq-98" target="8qxIZzSABNLE7XRfmwXq-100">
          <mxGeometry relative="1" as="geometry">
            <mxPoint x="360" y="600" as="targetPoint" />
          </mxGeometry>
        </mxCell>
        <mxCell id="8qxIZzSABNLE7XRfmwXq-101" style="edgeStyle=none;shape=connector;rounded=0;orthogonalLoop=1;jettySize=auto;html=1;exitX=1;exitY=0.5;exitDx=0;exitDy=0;exitPerimeter=0;strokeColor=default;align=center;verticalAlign=middle;fontFamily=Helvetica;fontSize=11;fontColor=default;labelBackgroundColor=default;endArrow=classic;entryX=0;entryY=0.5;entryDx=0;entryDy=0;entryPerimeter=0;" edge="1" parent="1" source="8qxIZzSABNLE7XRfmwXq-98" target="8qxIZzSABNLE7XRfmwXq-102">
          <mxGeometry relative="1" as="geometry">
            <mxPoint x="500" y="525" as="targetPoint" />
          </mxGeometry>
        </mxCell>
        <mxCell id="8qxIZzSABNLE7XRfmwXq-98" value="&lt;font style=&quot;font-size: 14px;&quot;&gt;종료 버튼&lt;/font&gt;" style="strokeWidth=2;html=1;shape=mxgraph.flowchart.decision;whiteSpace=wrap;fontFamily=Helvetica;fontSize=11;fontColor=default;labelBackgroundColor=default;" vertex="1" parent="1">
          <mxGeometry x="280" y="490" width="160" height="60" as="geometry" />
        </mxCell>
        <mxCell id="8qxIZzSABNLE7XRfmwXq-100" value="&lt;font style=&quot;font-size: 15px;&quot;&gt;프로그램&lt;/font&gt;&lt;div&gt;&lt;font style=&quot;font-size: 15px;&quot;&gt;종료&lt;/font&gt;&lt;/div&gt;" style="strokeWidth=2;html=1;shape=mxgraph.flowchart.start_2;whiteSpace=wrap;fontFamily=Helvetica;fontSize=11;fontColor=default;labelBackgroundColor=default;" vertex="1" parent="1">
          <mxGeometry x="310" y="575" width="100" height="100" as="geometry" />
        </mxCell>
        <mxCell id="8qxIZzSABNLE7XRfmwXq-116" style="edgeStyle=none;shape=connector;rounded=0;orthogonalLoop=1;jettySize=auto;html=1;exitX=1;exitY=0.5;exitDx=0;exitDy=0;exitPerimeter=0;strokeColor=default;align=center;verticalAlign=middle;fontFamily=Helvetica;fontSize=11;fontColor=default;labelBackgroundColor=default;endArrow=classic;entryX=0;entryY=0.5;entryDx=0;entryDy=0;entryPerimeter=0;" edge="1" parent="1" source="8qxIZzSABNLE7XRfmwXq-102" target="8qxIZzSABNLE7XRfmwXq-117">
          <mxGeometry relative="1" as="geometry">
            <mxPoint x="730" y="530" as="targetPoint" />
          </mxGeometry>
        </mxCell>
        <mxCell id="8qxIZzSABNLE7XRfmwXq-143" style="edgeStyle=none;shape=connector;rounded=0;orthogonalLoop=1;jettySize=auto;html=1;exitX=0.5;exitY=1;exitDx=0;exitDy=0;exitPerimeter=0;entryX=0.5;entryY=0;entryDx=0;entryDy=0;strokeColor=default;align=center;verticalAlign=middle;fontFamily=Helvetica;fontSize=11;fontColor=default;labelBackgroundColor=default;endArrow=classic;" edge="1" parent="1" source="8qxIZzSABNLE7XRfmwXq-102" target="8qxIZzSABNLE7XRfmwXq-106">
          <mxGeometry relative="1" as="geometry" />
        </mxCell>
        <mxCell id="8qxIZzSABNLE7XRfmwXq-102" value="&lt;span style=&quot;font-size: 14px;&quot;&gt;카드 정보 버튼&lt;/span&gt;" style="strokeWidth=2;html=1;shape=mxgraph.flowchart.decision;whiteSpace=wrap;fontFamily=Helvetica;fontSize=11;fontColor=default;labelBackgroundColor=default;" vertex="1" parent="1">
          <mxGeometry x="480" y="490" width="160" height="60" as="geometry" />
        </mxCell>
        <mxCell id="8qxIZzSABNLE7XRfmwXq-107" style="edgeStyle=none;shape=connector;rounded=0;orthogonalLoop=1;jettySize=auto;html=1;exitX=0.5;exitY=1;exitDx=0;exitDy=0;strokeColor=default;align=center;verticalAlign=middle;fontFamily=Helvetica;fontSize=11;fontColor=default;labelBackgroundColor=default;endArrow=classic;entryX=0.5;entryY=0;entryDx=0;entryDy=0;entryPerimeter=0;" edge="1" parent="1" source="8qxIZzSABNLE7XRfmwXq-106" target="8qxIZzSABNLE7XRfmwXq-108">
          <mxGeometry relative="1" as="geometry">
            <mxPoint x="560" y="665" as="targetPoint" />
          </mxGeometry>
        </mxCell>
        <mxCell id="8qxIZzSABNLE7XRfmwXq-106" value="&lt;span style=&quot;font-size: 16px;&quot;&gt;카드 정보 JPanel&lt;/span&gt;&lt;div&gt;&lt;span style=&quot;font-size: 16px;&quot;&gt;띄우기&lt;/span&gt;&lt;/div&gt;" style="rounded=1;whiteSpace=wrap;html=1;absoluteArcSize=1;arcSize=14;strokeWidth=2;fontFamily=Helvetica;fontSize=11;fontColor=default;labelBackgroundColor=default;" vertex="1" parent="1">
          <mxGeometry x="490" y="575" width="140" height="50" as="geometry" />
        </mxCell>
        <mxCell id="8qxIZzSABNLE7XRfmwXq-109" style="edgeStyle=none;shape=connector;rounded=0;orthogonalLoop=1;jettySize=auto;html=1;strokeColor=default;align=center;verticalAlign=middle;fontFamily=Helvetica;fontSize=11;fontColor=default;labelBackgroundColor=default;endArrow=classic;entryX=0;entryY=0.5;entryDx=0;entryDy=0;exitX=1;exitY=0.5;exitDx=0;exitDy=0;exitPerimeter=0;" edge="1" parent="1" source="8qxIZzSABNLE7XRfmwXq-108" target="8qxIZzSABNLE7XRfmwXq-110">
          <mxGeometry relative="1" as="geometry">
            <mxPoint x="690" y="695" as="targetPoint" />
          </mxGeometry>
        </mxCell>
        <mxCell id="8qxIZzSABNLE7XRfmwXq-111" style="edgeStyle=none;shape=connector;rounded=0;orthogonalLoop=1;jettySize=auto;html=1;exitX=0.5;exitY=1;exitDx=0;exitDy=0;exitPerimeter=0;strokeColor=default;align=center;verticalAlign=middle;fontFamily=Helvetica;fontSize=11;fontColor=default;labelBackgroundColor=default;endArrow=classic;entryX=0.5;entryY=0;entryDx=0;entryDy=0;entryPerimeter=0;" edge="1" parent="1" source="8qxIZzSABNLE7XRfmwXq-108" target="8qxIZzSABNLE7XRfmwXq-112">
          <mxGeometry relative="1" as="geometry">
            <mxPoint x="560" y="775" as="targetPoint" />
          </mxGeometry>
        </mxCell>
        <mxCell id="8qxIZzSABNLE7XRfmwXq-108" value="&lt;div&gt;&lt;font&gt;메인 아르카나&lt;/font&gt;&lt;/div&gt;&lt;font&gt;카드 정보 버튼&lt;/font&gt;" style="strokeWidth=2;html=1;shape=mxgraph.flowchart.decision;whiteSpace=wrap;fontFamily=Helvetica;fontSize=11;fontColor=default;labelBackgroundColor=default;" vertex="1" parent="1">
          <mxGeometry x="480" y="655" width="160" height="80" as="geometry" />
        </mxCell>
        <mxCell id="8qxIZzSABNLE7XRfmwXq-110" value="&lt;font style=&quot;font-size: 14px;&quot;&gt;카드 정보 JDialog&lt;/font&gt;&lt;div&gt;&lt;font style=&quot;font-size: 14px;&quot;&gt;띄우기&lt;/font&gt;&lt;/div&gt;" style="rounded=1;whiteSpace=wrap;html=1;absoluteArcSize=1;arcSize=14;strokeWidth=2;fontFamily=Helvetica;fontSize=11;fontColor=default;labelBackgroundColor=default;" vertex="1" parent="1">
          <mxGeometry x="670" y="670" width="140" height="50" as="geometry" />
        </mxCell>
        <mxCell id="8qxIZzSABNLE7XRfmwXq-113" style="edgeStyle=none;shape=connector;rounded=0;orthogonalLoop=1;jettySize=auto;html=1;exitX=1;exitY=0.5;exitDx=0;exitDy=0;exitPerimeter=0;strokeColor=default;align=center;verticalAlign=middle;fontFamily=Helvetica;fontSize=11;fontColor=default;labelBackgroundColor=default;endArrow=classic;entryX=0;entryY=0.5;entryDx=0;entryDy=0;" edge="1" parent="1" source="8qxIZzSABNLE7XRfmwXq-112" target="8qxIZzSABNLE7XRfmwXq-114">
          <mxGeometry relative="1" as="geometry">
            <mxPoint x="670" y="805" as="targetPoint" />
          </mxGeometry>
        </mxCell>
        <mxCell id="8qxIZzSABNLE7XRfmwXq-115" style="edgeStyle=none;shape=connector;rounded=0;orthogonalLoop=1;jettySize=auto;html=1;exitX=0;exitY=0.5;exitDx=0;exitDy=0;exitPerimeter=0;strokeColor=default;align=center;verticalAlign=middle;fontFamily=Helvetica;fontSize=11;fontColor=default;labelBackgroundColor=default;endArrow=classic;entryX=0.225;entryY=0.738;entryDx=0;entryDy=0;entryPerimeter=0;" edge="1" parent="1" source="8qxIZzSABNLE7XRfmwXq-112" target="8qxIZzSABNLE7XRfmwXq-102">
          <mxGeometry relative="1" as="geometry">
            <mxPoint x="460" y="550" as="targetPoint" />
            <Array as="points">
              <mxPoint x="460" y="805" />
              <mxPoint x="460" y="534" />
            </Array>
          </mxGeometry>
        </mxCell>
        <mxCell id="8qxIZzSABNLE7XRfmwXq-112" value="&lt;div&gt;&lt;font&gt;마이너 아르카나&lt;/font&gt;&lt;/div&gt;&lt;font&gt;카드 정보 버튼&lt;/font&gt;" style="strokeWidth=2;html=1;shape=mxgraph.flowchart.decision;whiteSpace=wrap;fontFamily=Helvetica;fontSize=11;fontColor=default;labelBackgroundColor=default;" vertex="1" parent="1">
          <mxGeometry x="480" y="765" width="160" height="80" as="geometry" />
        </mxCell>
        <mxCell id="8qxIZzSABNLE7XRfmwXq-114" value="&lt;font style=&quot;font-size: 14px;&quot;&gt;카드 정보 JDialog&lt;/font&gt;&lt;div&gt;&lt;font style=&quot;font-size: 14px;&quot;&gt;띄우기&lt;/font&gt;&lt;/div&gt;" style="rounded=1;whiteSpace=wrap;html=1;absoluteArcSize=1;arcSize=14;strokeWidth=2;fontFamily=Helvetica;fontSize=11;fontColor=default;labelBackgroundColor=default;" vertex="1" parent="1">
          <mxGeometry x="670" y="780" width="140" height="50" as="geometry" />
        </mxCell>
        <mxCell id="8qxIZzSABNLE7XRfmwXq-118" style="edgeStyle=none;shape=connector;rounded=0;orthogonalLoop=1;jettySize=auto;html=1;exitX=0.5;exitY=0;exitDx=0;exitDy=0;exitPerimeter=0;strokeColor=default;align=center;verticalAlign=middle;fontFamily=Helvetica;fontSize=11;fontColor=default;labelBackgroundColor=default;endArrow=classic;entryX=0.5;entryY=1;entryDx=0;entryDy=0;" edge="1" parent="1" source="8qxIZzSABNLE7XRfmwXq-117" target="8qxIZzSABNLE7XRfmwXq-119">
          <mxGeometry relative="1" as="geometry">
            <mxPoint x="520" y="430" as="targetPoint" />
            <Array as="points">
              <mxPoint x="760" y="460" />
              <mxPoint x="520" y="460" />
            </Array>
          </mxGeometry>
        </mxCell>
        <mxCell id="8qxIZzSABNLE7XRfmwXq-152" style="edgeStyle=none;shape=connector;rounded=0;orthogonalLoop=1;jettySize=auto;html=1;exitX=1;exitY=0.5;exitDx=0;exitDy=0;exitPerimeter=0;strokeColor=default;align=center;verticalAlign=middle;fontFamily=Helvetica;fontSize=11;fontColor=default;labelBackgroundColor=default;endArrow=classic;entryX=0;entryY=0.5;entryDx=0;entryDy=0;entryPerimeter=0;" edge="1" parent="1" source="8qxIZzSABNLE7XRfmwXq-117" target="8qxIZzSABNLE7XRfmwXq-153">
          <mxGeometry relative="1" as="geometry">
            <mxPoint x="910" y="520" as="targetPoint" />
          </mxGeometry>
        </mxCell>
        <mxCell id="8qxIZzSABNLE7XRfmwXq-117" value="&lt;font style=&quot;font-size: 12px;&quot;&gt;이용자 정보 버튼&lt;/font&gt;" style="strokeWidth=2;html=1;shape=mxgraph.flowchart.decision;whiteSpace=wrap;fontFamily=Helvetica;fontSize=11;fontColor=default;labelBackgroundColor=default;" vertex="1" parent="1">
          <mxGeometry x="680" y="490" width="160" height="60" as="geometry" />
        </mxCell>
        <mxCell id="8qxIZzSABNLE7XRfmwXq-120" style="edgeStyle=none;shape=connector;rounded=0;orthogonalLoop=1;jettySize=auto;html=1;exitX=0.5;exitY=0;exitDx=0;exitDy=0;strokeColor=default;align=center;verticalAlign=middle;fontFamily=Helvetica;fontSize=11;fontColor=default;labelBackgroundColor=default;endArrow=classic;entryX=0.5;entryY=1;entryDx=0;entryDy=0;entryPerimeter=0;" edge="1" parent="1" source="8qxIZzSABNLE7XRfmwXq-119" target="8qxIZzSABNLE7XRfmwXq-121">
          <mxGeometry relative="1" as="geometry">
            <mxPoint x="520" y="350" as="targetPoint" />
          </mxGeometry>
        </mxCell>
        <mxCell id="8qxIZzSABNLE7XRfmwXq-119" value="&lt;font style=&quot;font-size: 14px;&quot;&gt;이용자 정보 JPanel&lt;/font&gt;&lt;div&gt;&lt;font style=&quot;font-size: 14px;&quot;&gt;띄우기&lt;/font&gt;&lt;/div&gt;" style="rounded=1;whiteSpace=wrap;html=1;absoluteArcSize=1;arcSize=14;strokeWidth=2;fontFamily=Helvetica;fontSize=11;fontColor=default;labelBackgroundColor=default;" vertex="1" parent="1">
          <mxGeometry x="450" y="380" width="140" height="50" as="geometry" />
        </mxCell>
        <mxCell id="8qxIZzSABNLE7XRfmwXq-122" style="edgeStyle=none;shape=connector;rounded=0;orthogonalLoop=1;jettySize=auto;html=1;exitX=0.5;exitY=0;exitDx=0;exitDy=0;exitPerimeter=0;strokeColor=default;align=center;verticalAlign=middle;fontFamily=Helvetica;fontSize=11;fontColor=default;labelBackgroundColor=default;endArrow=classic;entryX=0.5;entryY=1;entryDx=0;entryDy=0;entryPerimeter=0;" edge="1" parent="1" source="8qxIZzSABNLE7XRfmwXq-121" target="8qxIZzSABNLE7XRfmwXq-127">
          <mxGeometry relative="1" as="geometry">
            <mxPoint x="520" y="240" as="targetPoint" />
          </mxGeometry>
        </mxCell>
        <mxCell id="8qxIZzSABNLE7XRfmwXq-123" style="edgeStyle=none;shape=connector;rounded=0;orthogonalLoop=1;jettySize=auto;html=1;exitX=1;exitY=0.5;exitDx=0;exitDy=0;exitPerimeter=0;strokeColor=default;align=center;verticalAlign=middle;fontFamily=Helvetica;fontSize=11;fontColor=default;labelBackgroundColor=default;endArrow=classic;entryX=0;entryY=0.5;entryDx=0;entryDy=0;" edge="1" parent="1" source="8qxIZzSABNLE7XRfmwXq-121" target="8qxIZzSABNLE7XRfmwXq-124">
          <mxGeometry relative="1" as="geometry">
            <mxPoint x="630" y="310" as="targetPoint" />
          </mxGeometry>
        </mxCell>
        <mxCell id="8qxIZzSABNLE7XRfmwXq-121" value="&lt;font style=&quot;font-size: 16px;&quot;&gt;이용자&amp;nbsp;&lt;/font&gt;&lt;span style=&quot;font-size: 16px; background-color: light-dark(#ffffff, var(--ge-dark-color, #121212)); color: light-dark(rgb(0, 0, 0), rgb(255, 255, 255));&quot;&gt;등록&lt;/span&gt;" style="strokeWidth=2;html=1;shape=mxgraph.flowchart.decision;whiteSpace=wrap;fontFamily=Helvetica;fontSize=11;fontColor=default;labelBackgroundColor=default;" vertex="1" parent="1">
          <mxGeometry x="440" y="300" width="160" height="50" as="geometry" />
        </mxCell>
        <mxCell id="8qxIZzSABNLE7XRfmwXq-125" style="edgeStyle=none;shape=connector;rounded=0;orthogonalLoop=1;jettySize=auto;html=1;exitX=0.356;exitY=0.96;exitDx=0;exitDy=0;strokeColor=default;align=center;verticalAlign=middle;fontFamily=Helvetica;fontSize=11;fontColor=default;labelBackgroundColor=default;endArrow=classic;exitPerimeter=0;entryX=0.621;entryY=0;entryDx=0;entryDy=0;entryPerimeter=0;" edge="1" parent="1" source="8qxIZzSABNLE7XRfmwXq-124" target="8qxIZzSABNLE7XRfmwXq-126">
          <mxGeometry relative="1" as="geometry">
            <mxPoint x="698" y="370" as="targetPoint" />
          </mxGeometry>
        </mxCell>
        <mxCell id="8qxIZzSABNLE7XRfmwXq-124" value="이름, 나이, 전화 번호&lt;div&gt;입력&lt;/div&gt;" style="shape=parallelogram;html=1;strokeWidth=2;perimeter=parallelogramPerimeter;whiteSpace=wrap;rounded=1;arcSize=12;size=0.23;fontFamily=Helvetica;fontSize=11;fontColor=default;labelBackgroundColor=default;" vertex="1" parent="1">
          <mxGeometry x="630" y="300" width="160" height="50" as="geometry" />
        </mxCell>
        <mxCell id="8qxIZzSABNLE7XRfmwXq-126" value="&lt;font&gt;입력 버튼으로&lt;/font&gt;&lt;div&gt;&lt;font&gt;DB에 저장/&lt;/font&gt;&lt;/div&gt;&lt;div&gt;&lt;font&gt;이용자 정보 리스트 갱신&lt;/font&gt;&lt;/div&gt;" style="rounded=1;whiteSpace=wrap;html=1;absoluteArcSize=1;arcSize=14;strokeWidth=2;fontFamily=Helvetica;fontSize=11;fontColor=default;labelBackgroundColor=default;" vertex="1" parent="1">
          <mxGeometry x="600" y="380" width="140" height="50" as="geometry" />
        </mxCell>
        <mxCell id="8qxIZzSABNLE7XRfmwXq-128" style="edgeStyle=none;shape=connector;rounded=0;orthogonalLoop=1;jettySize=auto;html=1;exitX=1;exitY=0.5;exitDx=0;exitDy=0;exitPerimeter=0;strokeColor=default;align=center;verticalAlign=middle;fontFamily=Helvetica;fontSize=11;fontColor=default;labelBackgroundColor=default;endArrow=classic;entryX=0;entryY=0.5;entryDx=0;entryDy=0;" edge="1" parent="1" source="8qxIZzSABNLE7XRfmwXq-127" target="8qxIZzSABNLE7XRfmwXq-129">
          <mxGeometry relative="1" as="geometry">
            <mxPoint x="650" y="200" as="targetPoint" />
          </mxGeometry>
        </mxCell>
        <mxCell id="8qxIZzSABNLE7XRfmwXq-132" style="edgeStyle=none;shape=connector;rounded=0;orthogonalLoop=1;jettySize=auto;html=1;exitX=0.5;exitY=0;exitDx=0;exitDy=0;exitPerimeter=0;strokeColor=default;align=center;verticalAlign=middle;fontFamily=Helvetica;fontSize=11;fontColor=default;labelBackgroundColor=default;endArrow=classic;entryX=0.5;entryY=1;entryDx=0;entryDy=0;entryPerimeter=0;" edge="1" parent="1" source="8qxIZzSABNLE7XRfmwXq-127" target="8qxIZzSABNLE7XRfmwXq-133">
          <mxGeometry relative="1" as="geometry">
            <mxPoint x="520" y="120" as="targetPoint" />
          </mxGeometry>
        </mxCell>
        <mxCell id="8qxIZzSABNLE7XRfmwXq-127" value="&lt;font style=&quot;font-size: 16px;&quot;&gt;이용자 삭제&lt;/font&gt;" style="strokeWidth=2;html=1;shape=mxgraph.flowchart.decision;whiteSpace=wrap;fontFamily=Helvetica;fontSize=11;fontColor=default;labelBackgroundColor=default;" vertex="1" parent="1">
          <mxGeometry x="440" y="225" width="160" height="50" as="geometry" />
        </mxCell>
        <mxCell id="8qxIZzSABNLE7XRfmwXq-144" style="edgeStyle=none;shape=connector;rounded=0;orthogonalLoop=1;jettySize=auto;html=1;exitX=1;exitY=0.5;exitDx=0;exitDy=0;entryX=0;entryY=0.5;entryDx=0;entryDy=0;strokeColor=default;align=center;verticalAlign=middle;fontFamily=Helvetica;fontSize=11;fontColor=default;labelBackgroundColor=default;endArrow=classic;" edge="1" parent="1" source="8qxIZzSABNLE7XRfmwXq-129" target="8qxIZzSABNLE7XRfmwXq-130">
          <mxGeometry relative="1" as="geometry" />
        </mxCell>
        <mxCell id="8qxIZzSABNLE7XRfmwXq-129" value="&lt;font style=&quot;font-size: 13px;&quot;&gt;회원번호 입력&lt;/font&gt;" style="shape=parallelogram;html=1;strokeWidth=2;perimeter=parallelogramPerimeter;whiteSpace=wrap;rounded=1;arcSize=12;size=0.23;fontFamily=Helvetica;fontSize=11;fontColor=default;labelBackgroundColor=default;" vertex="1" parent="1">
          <mxGeometry x="610" y="225" width="160" height="50" as="geometry" />
        </mxCell>
        <mxCell id="8qxIZzSABNLE7XRfmwXq-130" value="&lt;font&gt;삭제 버튼으로&lt;/font&gt;&lt;div&gt;&lt;font&gt;DB에서 삭제/&lt;/font&gt;&lt;/div&gt;&lt;div&gt;&lt;font&gt;이용자 정보&amp;amp;해석 결과 리스트 갱신&lt;/font&gt;&lt;/div&gt;" style="rounded=1;whiteSpace=wrap;html=1;absoluteArcSize=1;arcSize=14;strokeWidth=2;fontFamily=Helvetica;fontSize=11;fontColor=default;labelBackgroundColor=default;" vertex="1" parent="1">
          <mxGeometry x="790" y="220" width="160" height="60" as="geometry" />
        </mxCell>
        <mxCell id="8qxIZzSABNLE7XRfmwXq-134" style="edgeStyle=none;shape=connector;rounded=0;orthogonalLoop=1;jettySize=auto;html=1;exitX=1;exitY=0.5;exitDx=0;exitDy=0;exitPerimeter=0;strokeColor=default;align=center;verticalAlign=middle;fontFamily=Helvetica;fontSize=11;fontColor=default;labelBackgroundColor=default;endArrow=classic;entryX=0;entryY=0.5;entryDx=0;entryDy=0;" edge="1" parent="1" source="8qxIZzSABNLE7XRfmwXq-133" target="8qxIZzSABNLE7XRfmwXq-135">
          <mxGeometry relative="1" as="geometry">
            <mxPoint x="630" y="90" as="targetPoint" />
          </mxGeometry>
        </mxCell>
        <mxCell id="8qxIZzSABNLE7XRfmwXq-138" style="edgeStyle=none;shape=connector;rounded=0;orthogonalLoop=1;jettySize=auto;html=1;exitX=0.5;exitY=0;exitDx=0;exitDy=0;exitPerimeter=0;strokeColor=default;align=center;verticalAlign=middle;fontFamily=Helvetica;fontSize=11;fontColor=default;labelBackgroundColor=default;endArrow=classic;entryX=0.5;entryY=1;entryDx=0;entryDy=0;entryPerimeter=0;" edge="1" parent="1" source="8qxIZzSABNLE7XRfmwXq-133" target="8qxIZzSABNLE7XRfmwXq-139">
          <mxGeometry relative="1" as="geometry">
            <mxPoint x="520" y="20" as="targetPoint" />
          </mxGeometry>
        </mxCell>
        <mxCell id="8qxIZzSABNLE7XRfmwXq-133" value="&lt;span style=&quot;font-size: 16px;&quot;&gt;이용자 검색&lt;/span&gt;" style="strokeWidth=2;html=1;shape=mxgraph.flowchart.decision;whiteSpace=wrap;fontFamily=Helvetica;fontSize=11;fontColor=default;labelBackgroundColor=default;" vertex="1" parent="1">
          <mxGeometry x="440" y="140" width="160" height="50" as="geometry" />
        </mxCell>
        <mxCell id="8qxIZzSABNLE7XRfmwXq-145" style="edgeStyle=none;shape=connector;rounded=0;orthogonalLoop=1;jettySize=auto;html=1;exitX=1;exitY=0.5;exitDx=0;exitDy=0;entryX=0;entryY=0.5;entryDx=0;entryDy=0;strokeColor=default;align=center;verticalAlign=middle;fontFamily=Helvetica;fontSize=11;fontColor=default;labelBackgroundColor=default;endArrow=classic;" edge="1" parent="1" source="8qxIZzSABNLE7XRfmwXq-135" target="8qxIZzSABNLE7XRfmwXq-136">
          <mxGeometry relative="1" as="geometry" />
        </mxCell>
        <mxCell id="8qxIZzSABNLE7XRfmwXq-135" value="&lt;font style=&quot;font-size: 13px;&quot;&gt;회원번호 입력&lt;/font&gt;" style="shape=parallelogram;html=1;strokeWidth=2;perimeter=parallelogramPerimeter;whiteSpace=wrap;rounded=1;arcSize=12;size=0.23;fontFamily=Helvetica;fontSize=11;fontColor=default;labelBackgroundColor=default;" vertex="1" parent="1">
          <mxGeometry x="620" y="140" width="160" height="50" as="geometry" />
        </mxCell>
        <mxCell id="8qxIZzSABNLE7XRfmwXq-136" value="검색 버튼으로&amp;nbsp;&lt;div&gt;해석 결과 정보 리스트&lt;/div&gt;&lt;div&gt;갱신&lt;/div&gt;" style="rounded=1;whiteSpace=wrap;html=1;absoluteArcSize=1;arcSize=14;strokeWidth=2;fontFamily=Helvetica;fontSize=11;fontColor=default;labelBackgroundColor=default;" vertex="1" parent="1">
          <mxGeometry x="790" y="140" width="140" height="50" as="geometry" />
        </mxCell>
        <mxCell id="8qxIZzSABNLE7XRfmwXq-147" style="edgeStyle=none;shape=connector;rounded=0;orthogonalLoop=1;jettySize=auto;html=1;exitX=1;exitY=0.5;exitDx=0;exitDy=0;exitPerimeter=0;strokeColor=default;align=center;verticalAlign=middle;fontFamily=Helvetica;fontSize=11;fontColor=default;labelBackgroundColor=default;endArrow=classic;entryX=0;entryY=0.5;entryDx=0;entryDy=0;" edge="1" parent="1" source="8qxIZzSABNLE7XRfmwXq-139" target="8qxIZzSABNLE7XRfmwXq-148">
          <mxGeometry relative="1" as="geometry">
            <mxPoint x="670" y="85" as="targetPoint" />
          </mxGeometry>
        </mxCell>
        <mxCell id="8qxIZzSABNLE7XRfmwXq-139" value="&lt;span style=&quot;font-size: 16px;&quot;&gt;One 버튼&lt;/span&gt;" style="strokeWidth=2;html=1;shape=mxgraph.flowchart.decision;whiteSpace=wrap;fontFamily=Helvetica;fontSize=11;fontColor=default;labelBackgroundColor=default;" vertex="1" parent="1">
          <mxGeometry x="440" y="60" width="160" height="50" as="geometry" />
        </mxCell>
        <mxCell id="8qxIZzSABNLE7XRfmwXq-141" style="edgeStyle=none;shape=connector;rounded=0;orthogonalLoop=1;jettySize=auto;html=1;entryX=0.5;entryY=1;entryDx=0;entryDy=0;entryPerimeter=0;strokeColor=default;align=center;verticalAlign=middle;fontFamily=Helvetica;fontSize=11;fontColor=default;labelBackgroundColor=default;endArrow=classic;exitX=0.5;exitY=0;exitDx=0;exitDy=0;exitPerimeter=0;" edge="1" parent="1" source="8qxIZzSABNLE7XRfmwXq-139" target="8qxIZzSABNLE7XRfmwXq-146">
          <mxGeometry relative="1" as="geometry">
            <mxPoint x="520" y="-90" as="targetPoint" />
          </mxGeometry>
        </mxCell>
        <mxCell id="8qxIZzSABNLE7XRfmwXq-150" style="edgeStyle=none;shape=connector;rounded=0;orthogonalLoop=1;jettySize=auto;html=1;exitX=0.5;exitY=0;exitDx=0;exitDy=0;exitPerimeter=0;entryX=0.5;entryY=1;entryDx=0;entryDy=0;strokeColor=default;align=center;verticalAlign=middle;fontFamily=Helvetica;fontSize=11;fontColor=default;labelBackgroundColor=default;endArrow=classic;" edge="1" parent="1" source="8qxIZzSABNLE7XRfmwXq-146" target="8qxIZzSABNLE7XRfmwXq-149">
          <mxGeometry relative="1" as="geometry" />
        </mxCell>
        <mxCell id="8qxIZzSABNLE7XRfmwXq-151" style="edgeStyle=none;shape=connector;rounded=0;orthogonalLoop=1;jettySize=auto;html=1;exitX=1;exitY=0.5;exitDx=0;exitDy=0;exitPerimeter=0;strokeColor=default;align=center;verticalAlign=middle;fontFamily=Helvetica;fontSize=11;fontColor=default;labelBackgroundColor=default;endArrow=classic;entryX=0.869;entryY=0.383;entryDx=0;entryDy=0;entryPerimeter=0;" edge="1" parent="1" source="8qxIZzSABNLE7XRfmwXq-146" target="8qxIZzSABNLE7XRfmwXq-117">
          <mxGeometry relative="1" as="geometry">
            <mxPoint x="820" y="470" as="targetPoint" />
            <Array as="points">
              <mxPoint x="960" y="5" />
              <mxPoint x="960" y="320" />
              <mxPoint x="820" y="320" />
            </Array>
          </mxGeometry>
        </mxCell>
        <mxCell id="8qxIZzSABNLE7XRfmwXq-146" value="&lt;span style=&quot;font-size: 16px;&quot;&gt;Three 버튼&lt;/span&gt;" style="strokeWidth=2;html=1;shape=mxgraph.flowchart.decision;whiteSpace=wrap;fontFamily=Helvetica;fontSize=11;fontColor=default;labelBackgroundColor=default;" vertex="1" parent="1">
          <mxGeometry x="440" y="-20" width="160" height="50" as="geometry" />
        </mxCell>
        <mxCell id="8qxIZzSABNLE7XRfmwXq-148" value="&lt;font style=&quot;font-size: 12px;&quot;&gt;원 스프레드 JPanel&lt;/font&gt;&lt;div&gt;&lt;font style=&quot;font-size: 12px;&quot;&gt;띄우기&lt;/font&gt;&lt;/div&gt;" style="rounded=1;whiteSpace=wrap;html=1;absoluteArcSize=1;arcSize=14;strokeWidth=2;fontFamily=Helvetica;fontSize=11;fontColor=default;labelBackgroundColor=default;" vertex="1" parent="1">
          <mxGeometry x="640" y="60" width="140" height="50" as="geometry" />
        </mxCell>
        <mxCell id="8qxIZzSABNLE7XRfmwXq-149" value="&lt;font style=&quot;font-size: 13px;&quot;&gt;쓰리 스프레드 JPanel&lt;/font&gt;&lt;div&gt;&lt;font style=&quot;font-size: 13px;&quot;&gt;띄우기&lt;/font&gt;&lt;/div&gt;" style="rounded=1;whiteSpace=wrap;html=1;absoluteArcSize=1;arcSize=14;strokeWidth=2;fontFamily=Helvetica;fontSize=11;fontColor=default;labelBackgroundColor=default;" vertex="1" parent="1">
          <mxGeometry x="450" y="-110" width="140" height="50" as="geometry" />
        </mxCell>
        <mxCell id="8qxIZzSABNLE7XRfmwXq-154" style="edgeStyle=none;shape=connector;rounded=0;orthogonalLoop=1;jettySize=auto;html=1;exitX=0.5;exitY=1;exitDx=0;exitDy=0;exitPerimeter=0;strokeColor=default;align=center;verticalAlign=middle;fontFamily=Helvetica;fontSize=11;fontColor=default;labelBackgroundColor=default;endArrow=classic;entryX=0.9;entryY=0.617;entryDx=0;entryDy=0;entryPerimeter=0;" edge="1" parent="1" source="8qxIZzSABNLE7XRfmwXq-153" target="8qxIZzSABNLE7XRfmwXq-98">
          <mxGeometry relative="1" as="geometry">
            <mxPoint x="450" y="570" as="targetPoint" />
            <Array as="points">
              <mxPoint x="960" y="850" />
              <mxPoint x="424" y="850" />
            </Array>
          </mxGeometry>
        </mxCell>
        <mxCell id="8qxIZzSABNLE7XRfmwXq-158" style="edgeStyle=none;shape=connector;rounded=0;orthogonalLoop=1;jettySize=auto;html=1;exitX=0.5;exitY=0;exitDx=0;exitDy=0;exitPerimeter=0;entryX=0.5;entryY=1;entryDx=0;entryDy=0;strokeColor=default;align=center;verticalAlign=middle;fontFamily=Helvetica;fontSize=11;fontColor=default;labelBackgroundColor=default;endArrow=classic;" edge="1" parent="1" source="8qxIZzSABNLE7XRfmwXq-153" target="8qxIZzSABNLE7XRfmwXq-157">
          <mxGeometry relative="1" as="geometry" />
        </mxCell>
        <mxCell id="8qxIZzSABNLE7XRfmwXq-153" value="&lt;span style=&quot;font-size: 12px;&quot;&gt;카드 펼치기 버튼&lt;/span&gt;" style="strokeWidth=2;html=1;shape=mxgraph.flowchart.decision;whiteSpace=wrap;fontFamily=Helvetica;fontSize=11;fontColor=default;labelBackgroundColor=default;" vertex="1" parent="1">
          <mxGeometry x="880" y="490" width="160" height="60" as="geometry" />
        </mxCell>
        <mxCell id="8qxIZzSABNLE7XRfmwXq-159" style="edgeStyle=none;shape=connector;rounded=0;orthogonalLoop=1;jettySize=auto;html=1;exitX=0.5;exitY=0;exitDx=0;exitDy=0;strokeColor=default;align=center;verticalAlign=middle;fontFamily=Helvetica;fontSize=11;fontColor=default;labelBackgroundColor=default;endArrow=classic;entryX=0;entryY=0.5;entryDx=0;entryDy=0;entryPerimeter=0;" edge="1" parent="1" source="8qxIZzSABNLE7XRfmwXq-157" target="8qxIZzSABNLE7XRfmwXq-160">
          <mxGeometry relative="1" as="geometry">
            <mxPoint x="990" y="-50" as="targetPoint" />
            <Array as="points">
              <mxPoint x="960" y="340" />
              <mxPoint x="990" y="340" />
              <mxPoint x="990" y="20" />
            </Array>
          </mxGeometry>
        </mxCell>
        <mxCell id="8qxIZzSABNLE7XRfmwXq-157" value="&lt;font style=&quot;font-size: 14px;&quot;&gt;카드 펼치기 JPanel&lt;/font&gt;&lt;div&gt;&lt;font style=&quot;font-size: 14px;&quot;&gt;띄우기&lt;/font&gt;&lt;/div&gt;" style="rounded=1;whiteSpace=wrap;html=1;absoluteArcSize=1;arcSize=14;strokeWidth=2;fontFamily=Helvetica;fontSize=11;fontColor=default;labelBackgroundColor=default;" vertex="1" parent="1">
          <mxGeometry x="890" y="370" width="140" height="50" as="geometry" />
        </mxCell>
        <mxCell id="8qxIZzSABNLE7XRfmwXq-161" style="edgeStyle=none;shape=connector;rounded=0;orthogonalLoop=1;jettySize=auto;html=1;exitX=0.5;exitY=1;exitDx=0;exitDy=0;exitPerimeter=0;strokeColor=default;align=center;verticalAlign=middle;fontFamily=Helvetica;fontSize=11;fontColor=default;labelBackgroundColor=default;endArrow=classic;entryX=0.5;entryY=0;entryDx=0;entryDy=0;" edge="1" parent="1" source="8qxIZzSABNLE7XRfmwXq-160" target="8qxIZzSABNLE7XRfmwXq-162">
          <mxGeometry relative="1" as="geometry">
            <mxPoint x="1070" y="80" as="targetPoint" />
          </mxGeometry>
        </mxCell>
        <mxCell id="8qxIZzSABNLE7XRfmwXq-169" style="edgeStyle=none;shape=connector;rounded=0;orthogonalLoop=1;jettySize=auto;html=1;exitX=1;exitY=0.5;exitDx=0;exitDy=0;exitPerimeter=0;strokeColor=default;align=center;verticalAlign=middle;fontFamily=Helvetica;fontSize=11;fontColor=default;labelBackgroundColor=default;endArrow=classic;entryX=0;entryY=0.5;entryDx=0;entryDy=0;entryPerimeter=0;" edge="1" parent="1" source="8qxIZzSABNLE7XRfmwXq-160" target="8qxIZzSABNLE7XRfmwXq-170">
          <mxGeometry relative="1" as="geometry">
            <mxPoint x="1190" y="20" as="targetPoint" />
          </mxGeometry>
        </mxCell>
        <mxCell id="8qxIZzSABNLE7XRfmwXq-160" value="&lt;font style=&quot;font-size: 14px;&quot;&gt;1 card 버튼&lt;/font&gt;" style="strokeWidth=2;html=1;shape=mxgraph.flowchart.decision;whiteSpace=wrap;fontFamily=Helvetica;fontSize=11;fontColor=default;labelBackgroundColor=default;" vertex="1" parent="1">
          <mxGeometry x="1010" y="-10" width="120" height="60" as="geometry" />
        </mxCell>
        <mxCell id="8qxIZzSABNLE7XRfmwXq-163" style="edgeStyle=none;shape=connector;rounded=0;orthogonalLoop=1;jettySize=auto;html=1;exitX=0.5;exitY=1;exitDx=0;exitDy=0;strokeColor=default;align=center;verticalAlign=middle;fontFamily=Helvetica;fontSize=11;fontColor=default;labelBackgroundColor=default;endArrow=classic;entryX=0.5;entryY=0;entryDx=0;entryDy=0;" edge="1" parent="1" source="8qxIZzSABNLE7XRfmwXq-162" target="8qxIZzSABNLE7XRfmwXq-164">
          <mxGeometry relative="1" as="geometry">
            <mxPoint x="1070" y="170" as="targetPoint" />
          </mxGeometry>
        </mxCell>
        <mxCell id="8qxIZzSABNLE7XRfmwXq-162" value="&lt;font style=&quot;font-size: 14px;&quot;&gt;타로 대상 선택 후&lt;/font&gt;&lt;div&gt;&lt;font style=&quot;font-size: 14px;&quot;&gt;ok 버튼으로 등록&lt;/font&gt;&lt;/div&gt;" style="rounded=1;whiteSpace=wrap;html=1;absoluteArcSize=1;arcSize=14;strokeWidth=2;fontFamily=Helvetica;fontSize=11;fontColor=default;labelBackgroundColor=default;" vertex="1" parent="1">
          <mxGeometry x="1000" y="90" width="140" height="50" as="geometry" />
        </mxCell>
        <mxCell id="8qxIZzSABNLE7XRfmwXq-166" style="edgeStyle=none;shape=connector;rounded=0;orthogonalLoop=1;jettySize=auto;html=1;exitX=0.5;exitY=1;exitDx=0;exitDy=0;strokeColor=default;align=center;verticalAlign=middle;fontFamily=Helvetica;fontSize=11;fontColor=default;labelBackgroundColor=default;endArrow=classic;entryX=0.5;entryY=0;entryDx=0;entryDy=0;" edge="1" parent="1" source="8qxIZzSABNLE7XRfmwXq-164" target="8qxIZzSABNLE7XRfmwXq-167">
          <mxGeometry relative="1" as="geometry">
            <mxPoint x="1070" y="280" as="targetPoint" />
          </mxGeometry>
        </mxCell>
        <mxCell id="8qxIZzSABNLE7XRfmwXq-164" value="카드 뽑기 버튼으로&lt;div&gt;랜덤 카드 뽑기&lt;/div&gt;" style="rounded=1;whiteSpace=wrap;html=1;absoluteArcSize=1;arcSize=14;strokeWidth=2;fontFamily=Helvetica;fontSize=11;fontColor=default;labelBackgroundColor=default;" vertex="1" parent="1">
          <mxGeometry x="1000" y="190" width="140" height="50" as="geometry" />
        </mxCell>
        <mxCell id="8qxIZzSABNLE7XRfmwXq-168" style="edgeStyle=none;shape=connector;rounded=0;orthogonalLoop=1;jettySize=auto;html=1;exitX=0.5;exitY=1;exitDx=0;exitDy=0;strokeColor=default;align=center;verticalAlign=middle;fontFamily=Helvetica;fontSize=11;fontColor=default;labelBackgroundColor=default;endArrow=classic;entryX=0.569;entryY=0;entryDx=0;entryDy=0;entryPerimeter=0;" edge="1" parent="1" source="8qxIZzSABNLE7XRfmwXq-167" target="8qxIZzSABNLE7XRfmwXq-153">
          <mxGeometry relative="1" as="geometry">
            <mxPoint x="1070" y="620" as="targetPoint" />
            <Array as="points">
              <mxPoint x="1070" y="490" />
            </Array>
          </mxGeometry>
        </mxCell>
        <mxCell id="8qxIZzSABNLE7XRfmwXq-167" value="해석 결과 입력 후&lt;div&gt;DB에 저장/&lt;/div&gt;&lt;div&gt;이용자 정보&amp;amp;해석 결과 리스트 갱신&lt;/div&gt;" style="rounded=1;whiteSpace=wrap;html=1;absoluteArcSize=1;arcSize=14;strokeWidth=2;fontFamily=Helvetica;fontSize=11;fontColor=default;labelBackgroundColor=default;" vertex="1" parent="1">
          <mxGeometry x="1000" y="280" width="140" height="70" as="geometry" />
        </mxCell>
        <mxCell id="8qxIZzSABNLE7XRfmwXq-176" style="edgeStyle=none;shape=connector;rounded=0;orthogonalLoop=1;jettySize=auto;html=1;exitX=0.5;exitY=1;exitDx=0;exitDy=0;exitPerimeter=0;entryX=0.5;entryY=0;entryDx=0;entryDy=0;strokeColor=default;align=center;verticalAlign=middle;fontFamily=Helvetica;fontSize=11;fontColor=default;labelBackgroundColor=default;endArrow=classic;" edge="1" parent="1" source="8qxIZzSABNLE7XRfmwXq-170" target="8qxIZzSABNLE7XRfmwXq-172">
          <mxGeometry relative="1" as="geometry" />
        </mxCell>
        <mxCell id="8qxIZzSABNLE7XRfmwXq-178" style="edgeStyle=none;shape=connector;rounded=0;orthogonalLoop=1;jettySize=auto;html=1;exitX=1;exitY=0.5;exitDx=0;exitDy=0;exitPerimeter=0;strokeColor=default;align=center;verticalAlign=middle;fontFamily=Helvetica;fontSize=11;fontColor=default;labelBackgroundColor=default;endArrow=classic;entryX=0.675;entryY=0.9;entryDx=0;entryDy=0;entryPerimeter=0;" edge="1" parent="1" source="8qxIZzSABNLE7XRfmwXq-170" target="8qxIZzSABNLE7XRfmwXq-153">
          <mxGeometry relative="1" as="geometry">
            <mxPoint x="1030" y="560" as="targetPoint" />
            <Array as="points">
              <mxPoint x="1360" y="20" />
              <mxPoint x="1360" y="540" />
            </Array>
          </mxGeometry>
        </mxCell>
        <mxCell id="8qxIZzSABNLE7XRfmwXq-170" value="&lt;font style=&quot;font-size: 14px;&quot;&gt;3 card 버튼&lt;/font&gt;" style="strokeWidth=2;html=1;shape=mxgraph.flowchart.decision;whiteSpace=wrap;fontFamily=Helvetica;fontSize=11;fontColor=default;labelBackgroundColor=default;" vertex="1" parent="1">
          <mxGeometry x="1181" y="-10" width="120" height="60" as="geometry" />
        </mxCell>
        <mxCell id="8qxIZzSABNLE7XRfmwXq-171" style="edgeStyle=none;shape=connector;rounded=0;orthogonalLoop=1;jettySize=auto;html=1;exitX=0.5;exitY=1;exitDx=0;exitDy=0;strokeColor=default;align=center;verticalAlign=middle;fontFamily=Helvetica;fontSize=11;fontColor=default;labelBackgroundColor=default;endArrow=classic;entryX=0.5;entryY=0;entryDx=0;entryDy=0;" edge="1" parent="1" source="8qxIZzSABNLE7XRfmwXq-172" target="8qxIZzSABNLE7XRfmwXq-174">
          <mxGeometry relative="1" as="geometry">
            <mxPoint x="1241" y="170" as="targetPoint" />
          </mxGeometry>
        </mxCell>
        <mxCell id="8qxIZzSABNLE7XRfmwXq-172" value="&lt;font style=&quot;font-size: 14px;&quot;&gt;타로 대상 선택 후&lt;/font&gt;&lt;div&gt;&lt;font style=&quot;font-size: 14px;&quot;&gt;ok 버튼으로 등록&lt;/font&gt;&lt;/div&gt;" style="rounded=1;whiteSpace=wrap;html=1;absoluteArcSize=1;arcSize=14;strokeWidth=2;fontFamily=Helvetica;fontSize=11;fontColor=default;labelBackgroundColor=default;" vertex="1" parent="1">
          <mxGeometry x="1171" y="90" width="140" height="50" as="geometry" />
        </mxCell>
        <mxCell id="8qxIZzSABNLE7XRfmwXq-173" style="edgeStyle=none;shape=connector;rounded=0;orthogonalLoop=1;jettySize=auto;html=1;exitX=0.5;exitY=1;exitDx=0;exitDy=0;strokeColor=default;align=center;verticalAlign=middle;fontFamily=Helvetica;fontSize=11;fontColor=default;labelBackgroundColor=default;endArrow=classic;entryX=0.5;entryY=0;entryDx=0;entryDy=0;" edge="1" parent="1" source="8qxIZzSABNLE7XRfmwXq-174" target="8qxIZzSABNLE7XRfmwXq-175">
          <mxGeometry relative="1" as="geometry">
            <mxPoint x="1241" y="280" as="targetPoint" />
          </mxGeometry>
        </mxCell>
        <mxCell id="8qxIZzSABNLE7XRfmwXq-174" value="카드 뽑기 버튼으로&lt;div&gt;랜덤 카드 뽑기&lt;/div&gt;" style="rounded=1;whiteSpace=wrap;html=1;absoluteArcSize=1;arcSize=14;strokeWidth=2;fontFamily=Helvetica;fontSize=11;fontColor=default;labelBackgroundColor=default;" vertex="1" parent="1">
          <mxGeometry x="1171" y="190" width="140" height="50" as="geometry" />
        </mxCell>
        <mxCell id="8qxIZzSABNLE7XRfmwXq-177" style="edgeStyle=none;shape=connector;rounded=0;orthogonalLoop=1;jettySize=auto;html=1;exitX=0.5;exitY=1;exitDx=0;exitDy=0;strokeColor=default;align=center;verticalAlign=middle;fontFamily=Helvetica;fontSize=11;fontColor=default;labelBackgroundColor=default;endArrow=classic;entryX=1;entryY=0.5;entryDx=0;entryDy=0;entryPerimeter=0;" edge="1" parent="1" source="8qxIZzSABNLE7XRfmwXq-175" target="8qxIZzSABNLE7XRfmwXq-153">
          <mxGeometry relative="1" as="geometry">
            <mxPoint x="1241" y="584" as="targetPoint" />
            <Array as="points">
              <mxPoint x="1240" y="520" />
            </Array>
          </mxGeometry>
        </mxCell>
        <mxCell id="8qxIZzSABNLE7XRfmwXq-175" value="해석 결과 입력 후&lt;div&gt;DB에 저장/&lt;/div&gt;&lt;div&gt;이용자 정보&amp;amp;해석 결과 리스트 갱신&lt;/div&gt;" style="rounded=1;whiteSpace=wrap;html=1;absoluteArcSize=1;arcSize=14;strokeWidth=2;fontFamily=Helvetica;fontSize=11;fontColor=default;labelBackgroundColor=default;" vertex="1" parent="1">
          <mxGeometry x="1171" y="280" width="140" height="70" as="geometry" />
        </mxCell>
        <mxCell id="8qxIZzSABNLE7XRfmwXq-179" value="&lt;font style=&quot;font-size: 16px;&quot;&gt;Y&lt;/font&gt;" style="text;html=1;align=center;verticalAlign=middle;whiteSpace=wrap;rounded=0;fontFamily=Helvetica;fontSize=11;fontColor=default;labelBackgroundColor=default;" vertex="1" parent="1">
          <mxGeometry x="430" y="490" width="60" height="30" as="geometry" />
        </mxCell>
        <mxCell id="8qxIZzSABNLE7XRfmwXq-180" value="&lt;font style=&quot;font-size: 16px;&quot;&gt;Y&lt;/font&gt;" style="text;html=1;align=center;verticalAlign=middle;whiteSpace=wrap;rounded=0;fontFamily=Helvetica;fontSize=11;fontColor=default;labelBackgroundColor=default;" vertex="1" parent="1">
          <mxGeometry x="550" y="545" width="60" height="30" as="geometry" />
        </mxCell>
        <mxCell id="8qxIZzSABNLE7XRfmwXq-181" value="&lt;font style=&quot;font-size: 16px;&quot;&gt;Y&lt;/font&gt;" style="text;html=1;align=center;verticalAlign=middle;whiteSpace=wrap;rounded=0;fontFamily=Helvetica;fontSize=11;fontColor=default;labelBackgroundColor=default;" vertex="1" parent="1">
          <mxGeometry x="620" y="660" width="60" height="30" as="geometry" />
        </mxCell>
        <mxCell id="8qxIZzSABNLE7XRfmwXq-182" value="&lt;font style=&quot;font-size: 16px;&quot;&gt;Y&lt;/font&gt;" style="text;html=1;align=center;verticalAlign=middle;whiteSpace=wrap;rounded=0;fontFamily=Helvetica;fontSize=11;fontColor=default;labelBackgroundColor=default;" vertex="1" parent="1">
          <mxGeometry x="620" y="770" width="60" height="30" as="geometry" />
        </mxCell>
        <mxCell id="8qxIZzSABNLE7XRfmwXq-183" value="&lt;font style=&quot;font-size: 16px;&quot;&gt;Y&lt;/font&gt;" style="text;html=1;align=center;verticalAlign=middle;whiteSpace=wrap;rounded=0;fontFamily=Helvetica;fontSize=11;fontColor=default;labelBackgroundColor=default;" vertex="1" parent="1">
          <mxGeometry x="580" y="223" width="60" height="30" as="geometry" />
        </mxCell>
        <mxCell id="8qxIZzSABNLE7XRfmwXq-184" value="&lt;font style=&quot;font-size: 16px;&quot;&gt;Y&lt;/font&gt;" style="text;html=1;align=center;verticalAlign=middle;whiteSpace=wrap;rounded=0;fontFamily=Helvetica;fontSize=11;fontColor=default;labelBackgroundColor=default;" vertex="1" parent="1">
          <mxGeometry x="590" y="299" width="60" height="30" as="geometry" />
        </mxCell>
        <mxCell id="8qxIZzSABNLE7XRfmwXq-185" value="&lt;font style=&quot;font-size: 16px;&quot;&gt;Y&lt;/font&gt;" style="text;html=1;align=center;verticalAlign=middle;whiteSpace=wrap;rounded=0;fontFamily=Helvetica;fontSize=11;fontColor=default;labelBackgroundColor=default;" vertex="1" parent="1">
          <mxGeometry x="583" y="138" width="60" height="30" as="geometry" />
        </mxCell>
        <mxCell id="8qxIZzSABNLE7XRfmwXq-186" value="&lt;font style=&quot;font-size: 16px;&quot;&gt;Y&lt;/font&gt;" style="text;html=1;align=center;verticalAlign=middle;whiteSpace=wrap;rounded=0;fontFamily=Helvetica;fontSize=11;fontColor=default;labelBackgroundColor=default;" vertex="1" parent="1">
          <mxGeometry x="607" y="434" width="60" height="30" as="geometry" />
        </mxCell>
        <mxCell id="8qxIZzSABNLE7XRfmwXq-187" value="&lt;font style=&quot;font-size: 16px;&quot;&gt;Y&lt;/font&gt;" style="text;html=1;align=center;verticalAlign=middle;whiteSpace=wrap;rounded=0;fontFamily=Helvetica;fontSize=11;fontColor=default;labelBackgroundColor=default;" vertex="1" parent="1">
          <mxGeometry x="585" y="59" width="60" height="30" as="geometry" />
        </mxCell>
        <mxCell id="8qxIZzSABNLE7XRfmwXq-188" value="&lt;font style=&quot;font-size: 16px;&quot;&gt;Y&lt;/font&gt;" style="text;html=1;align=center;verticalAlign=middle;whiteSpace=wrap;rounded=0;fontFamily=Helvetica;fontSize=11;fontColor=default;labelBackgroundColor=default;" vertex="1" parent="1">
          <mxGeometry x="497" y="-51" width="60" height="30" as="geometry" />
        </mxCell>
        <mxCell id="8qxIZzSABNLE7XRfmwXq-189" value="&lt;font style=&quot;font-size: 16px;&quot;&gt;Y&lt;/font&gt;" style="text;html=1;align=center;verticalAlign=middle;whiteSpace=wrap;rounded=0;fontFamily=Helvetica;fontSize=11;fontColor=default;labelBackgroundColor=default;" vertex="1" parent="1">
          <mxGeometry x="938" y="444" width="60" height="30" as="geometry" />
        </mxCell>
        <mxCell id="8qxIZzSABNLE7XRfmwXq-190" value="&lt;font style=&quot;font-size: 16px;&quot;&gt;Y&lt;/font&gt;" style="text;html=1;align=center;verticalAlign=middle;whiteSpace=wrap;rounded=0;fontFamily=Helvetica;fontSize=11;fontColor=default;labelBackgroundColor=default;" vertex="1" parent="1">
          <mxGeometry x="1049" y="50" width="60" height="30" as="geometry" />
        </mxCell>
        <mxCell id="8qxIZzSABNLE7XRfmwXq-191" value="&lt;font style=&quot;font-size: 16px;&quot;&gt;Y&lt;/font&gt;" style="text;html=1;align=center;verticalAlign=middle;whiteSpace=wrap;rounded=0;fontFamily=Helvetica;fontSize=11;fontColor=default;labelBackgroundColor=default;" vertex="1" parent="1">
          <mxGeometry x="1220" y="50" width="60" height="30" as="geometry" />
        </mxCell>
        <mxCell id="8qxIZzSABNLE7XRfmwXq-193" value="&lt;font style=&quot;font-size: 16px;&quot;&gt;N&lt;/font&gt;" style="text;html=1;align=center;verticalAlign=middle;whiteSpace=wrap;rounded=0;fontFamily=Helvetica;fontSize=11;fontColor=default;labelBackgroundColor=default;" vertex="1" parent="1">
          <mxGeometry x="340" y="544" width="60" height="30" as="geometry" />
        </mxCell>
        <mxCell id="8qxIZzSABNLE7XRfmwXq-194" value="&lt;font style=&quot;font-size: 16px;&quot;&gt;N&lt;/font&gt;" style="text;html=1;align=center;verticalAlign=middle;whiteSpace=wrap;rounded=0;fontFamily=Helvetica;fontSize=11;fontColor=default;labelBackgroundColor=default;" vertex="1" parent="1">
          <mxGeometry x="539" y="732" width="60" height="30" as="geometry" />
        </mxCell>
        <mxCell id="8qxIZzSABNLE7XRfmwXq-195" value="&lt;font style=&quot;font-size: 16px;&quot;&gt;N&lt;/font&gt;" style="text;html=1;align=center;verticalAlign=middle;whiteSpace=wrap;rounded=0;fontFamily=Helvetica;fontSize=11;fontColor=default;labelBackgroundColor=default;" vertex="1" parent="1">
          <mxGeometry x="440" y="720" width="60" height="30" as="geometry" />
        </mxCell>
        <mxCell id="8qxIZzSABNLE7XRfmwXq-196" value="&lt;font style=&quot;font-size: 16px;&quot;&gt;N&lt;/font&gt;" style="text;html=1;align=center;verticalAlign=middle;whiteSpace=wrap;rounded=0;fontFamily=Helvetica;fontSize=11;fontColor=default;labelBackgroundColor=default;" vertex="1" parent="1">
          <mxGeometry x="623" y="494" width="60" height="30" as="geometry" />
        </mxCell>
        <mxCell id="8qxIZzSABNLE7XRfmwXq-197" value="&lt;font style=&quot;font-size: 16px;&quot;&gt;N&lt;/font&gt;" style="text;html=1;align=center;verticalAlign=middle;whiteSpace=wrap;rounded=0;fontFamily=Helvetica;fontSize=11;fontColor=default;labelBackgroundColor=default;" vertex="1" parent="1">
          <mxGeometry x="500" y="275" width="60" height="30" as="geometry" />
        </mxCell>
        <mxCell id="8qxIZzSABNLE7XRfmwXq-198" value="&lt;font style=&quot;font-size: 16px;&quot;&gt;N&lt;/font&gt;" style="text;html=1;align=center;verticalAlign=middle;whiteSpace=wrap;rounded=0;fontFamily=Helvetica;fontSize=11;fontColor=default;labelBackgroundColor=default;" vertex="1" parent="1">
          <mxGeometry x="500" y="193" width="60" height="30" as="geometry" />
        </mxCell>
        <mxCell id="8qxIZzSABNLE7XRfmwXq-199" value="&lt;font style=&quot;font-size: 16px;&quot;&gt;N&lt;/font&gt;" style="text;html=1;align=center;verticalAlign=middle;whiteSpace=wrap;rounded=0;fontFamily=Helvetica;fontSize=11;fontColor=default;labelBackgroundColor=default;" vertex="1" parent="1">
          <mxGeometry x="500" y="110" width="60" height="30" as="geometry" />
        </mxCell>
        <mxCell id="8qxIZzSABNLE7XRfmwXq-200" value="&lt;font style=&quot;font-size: 16px;&quot;&gt;N&lt;/font&gt;" style="text;html=1;align=center;verticalAlign=middle;whiteSpace=wrap;rounded=0;fontFamily=Helvetica;fontSize=11;fontColor=default;labelBackgroundColor=default;" vertex="1" parent="1">
          <mxGeometry x="500" y="30" width="60" height="30" as="geometry" />
        </mxCell>
        <mxCell id="8qxIZzSABNLE7XRfmwXq-201" value="&lt;font style=&quot;font-size: 16px;&quot;&gt;N&lt;/font&gt;" style="text;html=1;align=center;verticalAlign=middle;whiteSpace=wrap;rounded=0;fontFamily=Helvetica;fontSize=11;fontColor=default;labelBackgroundColor=default;" vertex="1" parent="1">
          <mxGeometry x="770" y="-21" width="60" height="30" as="geometry" />
        </mxCell>
        <mxCell id="8qxIZzSABNLE7XRfmwXq-202" value="&lt;font style=&quot;font-size: 16px;&quot;&gt;N&lt;/font&gt;" style="text;html=1;align=center;verticalAlign=middle;whiteSpace=wrap;rounded=0;fontFamily=Helvetica;fontSize=11;fontColor=default;labelBackgroundColor=default;" vertex="1" parent="1">
          <mxGeometry x="827" y="494" width="60" height="30" as="geometry" />
        </mxCell>
        <mxCell id="8qxIZzSABNLE7XRfmwXq-203" value="&lt;font style=&quot;font-size: 16px;&quot;&gt;N&lt;/font&gt;" style="text;html=1;align=center;verticalAlign=middle;whiteSpace=wrap;rounded=0;fontFamily=Helvetica;fontSize=11;fontColor=default;labelBackgroundColor=default;" vertex="1" parent="1">
          <mxGeometry x="940" y="595" width="60" height="30" as="geometry" />
        </mxCell>
        <mxCell id="8qxIZzSABNLE7XRfmwXq-204" value="&lt;font style=&quot;font-size: 16px;&quot;&gt;N&lt;/font&gt;" style="text;html=1;align=center;verticalAlign=middle;whiteSpace=wrap;rounded=0;fontFamily=Helvetica;fontSize=11;fontColor=default;labelBackgroundColor=default;" vertex="1" parent="1">
          <mxGeometry x="1121" y="-6" width="60" height="30" as="geometry" />
        </mxCell>
        <mxCell id="8qxIZzSABNLE7XRfmwXq-205" value="&lt;font style=&quot;font-size: 16px;&quot;&gt;N&lt;/font&gt;" style="text;html=1;align=center;verticalAlign=middle;whiteSpace=wrap;rounded=0;fontFamily=Helvetica;fontSize=11;fontColor=default;labelBackgroundColor=default;" vertex="1" parent="1">
          <mxGeometry x="1301" y="-6" width="60" height="30" as="geometry" />
        </mxCell>
      </root>
    </mxGraphModel>
  </diagram>
</mxfile>
